<svg height="88" viewBox="0 0 88 88" width="88" xmlns="http://www.w3.org/2000/svg"><path d="m44.5 88c-24.1 0-43.5-19.4-43.5-43.5s19.4-43.5 43.5-43.5 43.5 19.4 43.5 43.5-19.4 43.5-43.5 43.5z" fill="#fff"/><path d="m44.5 86c-23 0-41.5-18.6-41.5-41.5s18.5-41.5 41.5-41.5c22.9 0 41.5 18.6 41.5 41.5s-18.6 41.5-41.5 41.5z" fill="none" stroke="#deedd5" stroke-width="4"/><path d="m63.3 62.3q-.1.3-.2.4-.2.2-.4.3-.3.1-.5.1h-35.4q-.2 0-.4-.1-.3-.1-.4-.2-.2-.2-.3-.4-.1-.3-.1-.5v-21.4q0-.3.1-.6.2-.2.4-.4.3-.2.6-.2.3 0 .6.1l11.3 4.2v-3.1q0-.3.1-.6.2-.2.4-.4.3-.2.6-.2.3 0 .5.1l11.3 4.2.8-16.5q0-.3.1-.5.1-.2.2-.4.2-.1.4-.2.2-.1.5-.1h7.1q.3 0 .5.1.2.1.4.2.1.2.2.4.1.2.1.5l1.6 34.7q0 .3-.1.5zm-35.3-1.6h1.5v-3c0-1 .4-1.9 1-2.6.7-.6 1.6-1 2.5-1 1 0 1.9.4 2.5 1 .7.7 1 1.6 1 2.6v3h2.1v-14.4l-10.6-4zm6.1-3.1c0-.2-.1-.5-.3-.7s-.5-.3-.8-.3-.5.1-.7.3-.4.5-.4.7v3.1h2.2zm20.5-29.3-.2 5.6h5.3l-.2-5.6zm-13.7 32.3h1.5v-3c0-1 .4-1.8 1.1-2.5.6-.6 1.5-1 2.4-1s1.8.4 2.5 1c.6.7 1 1.5 1 2.5v3h1.3l.6-14.5-10.4-3.9zm6.1-3c0-.3-.1-.6-.3-.8s-.5-.3-.8-.3-.5.1-.7.3-.3.5-.3.8v3h2.1zm13.8 3-1.1-24.2h-5.5l-1.1 24.2z" fill="#1d3620" fill-rule="evenodd"/></svg>