<svg height="88" viewBox="0 0 88 88" width="88" xmlns="http://www.w3.org/2000/svg"><path d="m44.5 88c-24.1 0-43.5-19.4-43.5-43.5s19.4-43.5 43.5-43.5 43.5 19.4 43.5 43.5-19.4 43.5-43.5 43.5z" fill="#fff"/><path d="m44.5 86c-23 0-41.5-18.6-41.5-41.5s18.5-41.5 41.5-41.5c22.9 0 41.5 18.6 41.5 41.5s-18.6 41.5-41.5 41.5z" fill="none" stroke="#deedd5" stroke-width="4"/><g fill="#1d3620"><path d="m58.9 61.4q-.1.3-.3.6-.2.3-.5.5-.3.2-.7.2h-19.9c-1.2 0-2.4-.3-3.5-.9-1-.6-1.9-1.4-2.6-2.4s-1.1-2.1-1.2-3.4c-.2-1.2 0-2.4.5-3.5l6.4-15.5v-9.2q0-.3.1-.6.1-.2.3-.4.2-.3.5-.4.2-.1.5-.1h8.8q.2 0 .5.1.3.1.5.4.2.2.3.4.1.3.1.6v9.2l10.1 23.7q.1.3.1.7zm-18.9-23.9q0 .1 0 .2-.1 0-.1.1 0 .1 0 .2l-1.3 2.9h8.7l-1.4-3q0-.1 0-.1-.1-.1-.1-.2 0-.1 0-.1 0-.1 0-.2v-8.1h-5.8v8.1q0 .1 0 .2zm15.2 22.3-6.8-16h-11l-3.9 9.4q.2-.2.5-.4.3-.2.7-.4.3-.2.6-.3.4-.1.7-.1.9-.2 1.8 0 .9.2 1.6.7.7.5 1.2 1.3.5.8.6 1.6c.1.4 0 .8-.2 1.1s-.6.6-.9.6c-.4.1-.8 0-1.1-.2s-.6-.6-.6-1q-.1-.3-.2-.5-.2-.3-.5-.5-.2-.2-.5-.3-.3 0-.7 0-.2.1-.4.2-.2 0-.4.2-.2.1-.3.2-.2.2-.3.4-.1.2-.2.4-.1.2-.2.4 0 .2 0 .5 0 .2 0 .4c.2 1.2.6 2.3 3.8 2.3z" fill-rule="evenodd"/><path d="m47.2 53.4q.3.1.5.2.2.1.4.2.1.1.3.3c.8.7.9 1.9.3 2.8s-1.8 1.2-2.8.8c-.9-.4-1.5-1.4-1.3-2.5.2-1 1.1-1.8 2.2-1.8q.2 0 .4 0zm-.1 2.9q.1-.1.2-.2.1-.1.1-.2.1-.1.1-.2c0-.3-.2-.6-.4-.7-.3-.1-.6 0-.8.2-.1.2-.2.5-.1.7s.3.4.6.4q.1 0 .3 0z" fill-rule="evenodd"/><path d="m46.5 50.8q-.3-.1-.5-.3-.2-.2-.4-.5-.1-.3-.1-.6c.1-.6.4-1.2 1-1.4s1.2-.1 1.7.3c.4.5.5 1.1.3 1.7s-.8.9-1.4.9q-.3.1-.6-.1z"/><path d="m44.6 46.9c0 .6-.4 1.1-.9 1.4-.6.2-1.2.1-1.6-.4-.4-.4-.6-1-.3-1.6.2-.5.7-.9 1.3-.9q.3 0 .6.1.2.2.4.4.3.2.4.4.1.3.1.6z"/></g></svg>