<svg height="88" viewBox="0 0 88 88" width="88" xmlns="http://www.w3.org/2000/svg"><path d="m44.5 87c-24.1 0-43.5-19.4-43.5-43.5s19.4-43.5 43.5-43.5 43.5 19.4 43.5 43.5-19.4 43.5-43.5 43.5z" fill="#fff"/><path d="m44.5 85c-23 0-41.5-18.6-41.5-41.5s18.5-41.5 41.5-41.5c22.9 0 41.5 18.6 41.5 41.5s-18.6 41.5-41.5 41.5z" fill="none" stroke="#deedd5" stroke-width="4"/><path d="m54.1 25.1c1 .7 1.7 1.8 2 3.1.2 1.2 0 2.5-.6 3.6-.7 1.1-1.7 1.9-2.9 2.3l-2.7 4.1h11.5q.3 0 .5.1.3.1.5.3.1.2.2.4.1.3.1.5c0 4.4-.6 9.1-2.7 12.9q-.7 1.3-1.7 2.4-.9 1.1-2.1 1.9-1.1.8-2.4 1.4-1.4.5-2.8.8v1.5q0 .5-.2 1-.2.5-.6.8-.3.4-.8.6-.5.2-1 .2h-7.8q-.5 0-1-.2-.5-.2-.9-.6-.3-.3-.5-.8-.2-.5-.2-1v-1.5q-1.4-.3-2.8-.8-1.3-.6-2.4-1.4-1.2-.8-2.2-1.9-.9-1.1-1.6-2.3c-2.1-3.9-2.8-8.6-2.8-13q0-.2.1-.5.1-.2.3-.4.2-.2.4-.3.3-.1.6-.1h13.6l4.9-8.4q-.1-.4-.1-.8 0-.4 0-.8.1-.4.2-.8.1-.4.3-.8.2-.4.6-.8.3-.4.7-.7.4-.3.9-.6.4-.2.9-.3.1 0 .3-.1.1 0 .2 0 .1 0 .3-.1.1 0 .2 0c1.3-.1 2.5.3 3.5 1.1zm-4.4 1.8q-.6.4-.9.8-.3.5-.4 1.1-.1.6.1 1.2 0 .1.1.3 0 .1 0 .3-.1.1-.1.2 0 .2-.1.3l-4.2 7.1h2.6l3.9-5.9q.1-.1.1-.2.1-.1.2-.2.1 0 .3-.1.1 0 .2 0c.7-.2 1.2-.6 1.6-1.1s.6-1.2.5-1.9c-.1-.6-.5-1.2-1-1.6s-1.2-.7-1.8-.6q-.6 0-1.1.3zm-20.4 16.6h30.4q.1-1.4.2-2.7h-17.7q-.1.1-.2.1-.1 0-.1 0-.1 0-.2 0-.1 0-.2-.1h-12.4q.1 1.3.2 2.7zm.6 3.9q.1.7.4 1.3.2.6.4 1.3.3.6.6 1.2c1.8 3.2 4.5 5.3 9.3 5.3h7.8c4.8 0 7.5-2.1 9.3-5.3q.3-.6.6-1.2.2-.7.4-1.3.2-.7.4-1.3.2-.7.3-1.3h-29.8q.1.6.3 1.3zm10.7 13h7.8v-1.3h-7.8z" fill="#1d3620" fill-rule="evenodd"/></svg>